<svg width="132" height="115" viewBox="0 0 132 115" fill="none" xmlns="http://www.w3.org/2000/svg">
<g opacity="0.3">
<mask id="mask0_21_5" style="mask-type:alpha" maskUnits="userSpaceOnUse" x="0" y="104" width="11" height="11">
<path d="M5.22838 104.575C8.11594 104.575 10.4568 106.909 10.4568 109.788C10.4568 112.666 8.11594 115 5.22838 115C2.34082 115 0 112.666 0 109.788C0 106.909 2.34082 104.575 5.22838 104.575Z" fill="url(#paint0_linear_21_5)"/>
</mask>
<g mask="url(#mask0_21_5)">
<path d="M5.22838 104.575C8.11594 104.575 10.4568 106.909 10.4568 109.788C10.4568 112.666 8.11594 115 5.22838 115C2.34082 115 0 112.666 0 109.788C0 106.909 2.34082 104.575 5.22838 104.575Z" fill="url(#paint1_linear_21_5)"/>
</g>
<mask id="mask1_21_5" style="mask-type:alpha" maskUnits="userSpaceOnUse" x="30" y="104" width="11" height="11">
<path d="M35.5095 104.575C38.397 104.575 40.7378 106.909 40.7378 109.788C40.7378 112.666 38.397 115 35.5095 115C32.6219 115 30.2811 112.666 30.2811 109.788C30.2811 106.909 32.6219 104.575 35.5095 104.575Z" fill="url(#paint2_linear_21_5)"/>
</mask>
<g mask="url(#mask1_21_5)">
<path d="M35.5095 104.575C38.397 104.575 40.7378 106.909 40.7378 109.788C40.7378 112.666 38.397 115 35.5095 115C32.6219 115 30.2811 112.666 30.2811 109.788C30.2811 106.909 32.6219 104.575 35.5095 104.575Z" fill="url(#paint3_linear_21_5)"/>
</g>
<mask id="mask2_21_5" style="mask-type:alpha" maskUnits="userSpaceOnUse" x="60" y="104" width="12" height="11">
<path d="M65.7905 104.575C68.6781 104.575 71.0189 106.909 71.0189 109.788C71.0189 112.666 68.6781 115 65.7905 115C62.903 115 60.5621 112.666 60.5621 109.788C60.5621 106.909 62.903 104.575 65.7905 104.575Z" fill="url(#paint4_linear_21_5)"/>
</mask>
<g mask="url(#mask2_21_5)">
<path d="M65.7905 104.575C68.6781 104.575 71.0189 106.909 71.0189 109.788C71.0189 112.666 68.6781 115 65.7905 115C62.903 115 60.5621 112.666 60.5621 109.788C60.5621 106.909 62.903 104.575 65.7905 104.575Z" fill="url(#paint5_linear_21_5)"/>
</g>
<mask id="mask3_21_5" style="mask-type:alpha" maskUnits="userSpaceOnUse" x="90" y="104" width="12" height="11">
<path d="M96.0716 104.575C98.9592 104.575 101.3 106.909 101.3 109.788C101.3 112.666 98.9592 115 96.0716 115C93.184 115 90.8432 112.666 90.8432 109.788C90.8432 106.909 93.184 104.575 96.0716 104.575Z" fill="url(#paint6_linear_21_5)"/>
</mask>
<g mask="url(#mask3_21_5)">
<path d="M96.0716 104.575C98.9592 104.575 101.3 106.909 101.3 109.788C101.3 112.666 98.9592 115 96.0716 115C93.184 115 90.8432 112.666 90.8432 109.788C90.8432 106.909 93.184 104.575 96.0716 104.575Z" fill="url(#paint7_linear_21_5)"/>
</g>
<mask id="mask4_21_5" style="mask-type:alpha" maskUnits="userSpaceOnUse" x="121" y="104" width="11" height="11">
<path d="M126.353 104.575C129.24 104.575 131.581 106.909 131.581 109.788C131.581 112.666 129.24 115 126.353 115C123.465 115 121.124 112.666 121.124 109.788C121.124 106.909 123.465 104.575 126.353 104.575Z" fill="url(#paint8_linear_21_5)"/>
</mask>
<g mask="url(#mask4_21_5)">
<path d="M126.353 104.575C129.24 104.575 131.581 106.909 131.581 109.788C131.581 112.666 129.24 115 126.353 115C123.465 115 121.124 112.666 121.124 109.788C121.124 106.909 123.465 104.575 126.353 104.575Z" fill="url(#paint9_linear_21_5)"/>
</g>
<mask id="mask5_21_5" style="mask-type:alpha" maskUnits="userSpaceOnUse" x="0" y="78" width="11" height="11">
<path d="M5.22838 78.4042C8.11594 78.4042 10.4568 80.7379 10.4568 83.6166C10.4568 86.4954 8.11594 88.829 5.22838 88.829C2.34082 88.829 0 86.4954 0 83.6166C0 80.7379 2.34082 78.4042 5.22838 78.4042Z" fill="url(#paint10_linear_21_5)"/>
</mask>
<g mask="url(#mask5_21_5)">
<path d="M5.22838 78.4042C8.11594 78.4042 10.4568 80.7379 10.4568 83.6166C10.4568 86.4954 8.11594 88.829 5.22838 88.829C2.34082 88.829 0 86.4954 0 83.6166C0 80.7379 2.34082 78.4042 5.22838 78.4042Z" fill="url(#paint11_linear_21_5)"/>
</g>
<mask id="mask6_21_5" style="mask-type:alpha" maskUnits="userSpaceOnUse" x="30" y="78" width="11" height="11">
<path d="M35.5095 78.4042C38.397 78.4042 40.7378 80.7379 40.7378 83.6166C40.7378 86.4954 38.397 88.829 35.5095 88.829C32.6219 88.829 30.2811 86.4954 30.2811 83.6166C30.2811 80.7379 32.6219 78.4042 35.5095 78.4042Z" fill="url(#paint12_linear_21_5)"/>
</mask>
<g mask="url(#mask6_21_5)">
<path d="M35.5095 78.4042C38.397 78.4042 40.7378 80.7379 40.7378 83.6166C40.7378 86.4954 38.397 88.829 35.5095 88.829C32.6219 88.829 30.2811 86.4954 30.2811 83.6166C30.2811 80.7379 32.6219 78.4042 35.5095 78.4042Z" fill="url(#paint13_linear_21_5)"/>
</g>
<mask id="mask7_21_5" style="mask-type:alpha" maskUnits="userSpaceOnUse" x="60" y="78" width="12" height="11">
<path d="M65.7905 78.4042C68.6781 78.4042 71.0189 80.7379 71.0189 83.6166C71.0189 86.4954 68.6781 88.829 65.7905 88.829C62.903 88.829 60.5621 86.4954 60.5621 83.6166C60.5621 80.7379 62.903 78.4042 65.7905 78.4042Z" fill="url(#paint14_linear_21_5)"/>
</mask>
<g mask="url(#mask7_21_5)">
<path d="M65.7905 78.4042C68.6781 78.4042 71.0189 80.7379 71.0189 83.6166C71.0189 86.4954 68.6781 88.829 65.7905 88.829C62.903 88.829 60.5621 86.4954 60.5621 83.6166C60.5621 80.7379 62.903 78.4042 65.7905 78.4042Z" fill="url(#paint15_linear_21_5)"/>
</g>
<mask id="mask8_21_5" style="mask-type:alpha" maskUnits="userSpaceOnUse" x="90" y="78" width="12" height="11">
<path d="M96.0716 78.4042C98.9592 78.4042 101.3 80.7379 101.3 83.6166C101.3 86.4954 98.9592 88.829 96.0716 88.829C93.184 88.829 90.8432 86.4954 90.8432 83.6166C90.8432 80.7379 93.184 78.4042 96.0716 78.4042Z" fill="url(#paint16_linear_21_5)"/>
</mask>
<g mask="url(#mask8_21_5)">
<path d="M96.0716 78.4042C98.9592 78.4042 101.3 80.7379 101.3 83.6166C101.3 86.4954 98.9592 88.829 96.0716 88.829C93.184 88.829 90.8432 86.4954 90.8432 83.6166C90.8432 80.7379 93.184 78.4042 96.0716 78.4042Z" fill="url(#paint17_linear_21_5)"/>
</g>
<mask id="mask9_21_5" style="mask-type:alpha" maskUnits="userSpaceOnUse" x="121" y="78" width="11" height="11">
<path d="M126.353 78.4042C129.24 78.4042 131.581 80.7379 131.581 83.6166C131.581 86.4954 129.24 88.829 126.353 88.829C123.465 88.829 121.124 86.4954 121.124 83.6166C121.124 80.7379 123.465 78.4042 126.353 78.4042Z" fill="url(#paint18_linear_21_5)"/>
</mask>
<g mask="url(#mask9_21_5)">
<path d="M126.353 78.4042C129.24 78.4042 131.581 80.7379 131.581 83.6166C131.581 86.4954 129.24 88.829 126.353 88.829C123.465 88.829 121.124 86.4954 121.124 83.6166C121.124 80.7379 123.465 78.4042 126.353 78.4042Z" fill="url(#paint19_linear_21_5)"/>
</g>
<mask id="mask10_21_5" style="mask-type:alpha" maskUnits="userSpaceOnUse" x="0" y="52" width="11" height="11">
<path d="M5.22838 52.2875C8.11594 52.2875 10.4568 54.6212 10.4568 57.5C10.4568 60.3788 8.11594 62.7125 5.22838 62.7125C2.34082 62.7125 0 60.3788 0 57.5C0 54.6212 2.34082 52.2875 5.22838 52.2875Z" fill="url(#paint20_linear_21_5)"/>
</mask>
<g mask="url(#mask10_21_5)">
<path d="M5.22838 52.2875C8.11594 52.2875 10.4568 54.6212 10.4568 57.5C10.4568 60.3788 8.11594 62.7125 5.22838 62.7125C2.34082 62.7125 0 60.3788 0 57.5C0 54.6212 2.34082 52.2875 5.22838 52.2875Z" fill="url(#paint21_linear_21_5)"/>
</g>
<mask id="mask11_21_5" style="mask-type:alpha" maskUnits="userSpaceOnUse" x="30" y="52" width="11" height="11">
<path d="M35.5095 52.2875C38.397 52.2875 40.7378 54.6212 40.7378 57.5C40.7378 60.3788 38.397 62.7125 35.5095 62.7125C32.6219 62.7125 30.2811 60.3788 30.2811 57.5C30.2811 54.6212 32.6219 52.2875 35.5095 52.2875Z" fill="url(#paint22_linear_21_5)"/>
</mask>
<g mask="url(#mask11_21_5)">
<path d="M35.5095 52.2875C38.397 52.2875 40.7378 54.6212 40.7378 57.5C40.7378 60.3788 38.397 62.7125 35.5095 62.7125C32.6219 62.7125 30.2811 60.3788 30.2811 57.5C30.2811 54.6212 32.6219 52.2875 35.5095 52.2875Z" fill="url(#paint23_linear_21_5)"/>
</g>
<mask id="mask12_21_5" style="mask-type:alpha" maskUnits="userSpaceOnUse" x="60" y="52" width="12" height="11">
<path d="M65.7905 52.2875C68.6781 52.2875 71.0189 54.6212 71.0189 57.5C71.0189 60.3788 68.6781 62.7125 65.7905 62.7125C62.903 62.7125 60.5621 60.3788 60.5621 57.5C60.5621 54.6212 62.903 52.2875 65.7905 52.2875Z" fill="url(#paint24_linear_21_5)"/>
</mask>
<g mask="url(#mask12_21_5)">
<path d="M65.7905 52.2875C68.6781 52.2875 71.0189 54.6212 71.0189 57.5C71.0189 60.3788 68.6781 62.7125 65.7905 62.7125C62.903 62.7125 60.5621 60.3788 60.5621 57.5C60.5621 54.6212 62.903 52.2875 65.7905 52.2875Z" fill="url(#paint25_linear_21_5)"/>
</g>
<mask id="mask13_21_5" style="mask-type:alpha" maskUnits="userSpaceOnUse" x="90" y="52" width="12" height="11">
<path d="M96.0716 52.2875C98.9592 52.2875 101.3 54.6212 101.3 57.5C101.3 60.3788 98.9592 62.7125 96.0716 62.7125C93.184 62.7125 90.8432 60.3788 90.8432 57.5C90.8432 54.6212 93.184 52.2875 96.0716 52.2875Z" fill="url(#paint26_linear_21_5)"/>
</mask>
<g mask="url(#mask13_21_5)">
<path d="M96.0716 52.2875C98.9592 52.2875 101.3 54.6212 101.3 57.5C101.3 60.3788 98.9592 62.7125 96.0716 62.7125C93.184 62.7125 90.8432 60.3788 90.8432 57.5C90.8432 54.6212 93.184 52.2875 96.0716 52.2875Z" fill="url(#paint27_linear_21_5)"/>
</g>
<mask id="mask14_21_5" style="mask-type:alpha" maskUnits="userSpaceOnUse" x="121" y="52" width="11" height="11">
<path d="M126.353 52.2875C129.24 52.2875 131.581 54.6212 131.581 57.5C131.581 60.3788 129.24 62.7125 126.353 62.7125C123.465 62.7125 121.124 60.3788 121.124 57.5C121.124 54.6212 123.465 52.2875 126.353 52.2875Z" fill="url(#paint28_linear_21_5)"/>
</mask>
<g mask="url(#mask14_21_5)">
<path d="M126.353 52.2875C129.24 52.2875 131.581 54.6212 131.581 57.5C131.581 60.3788 129.24 62.7125 126.353 62.7125C123.465 62.7125 121.124 60.3788 121.124 57.5C121.124 54.6212 123.465 52.2875 126.353 52.2875Z" fill="url(#paint29_linear_21_5)"/>
</g>
<mask id="mask15_21_5" style="mask-type:alpha" maskUnits="userSpaceOnUse" x="0" y="26" width="11" height="11">
<path d="M5.22838 26.1166C8.11594 26.1166 10.4568 28.4504 10.4568 31.3291C10.4568 34.2079 8.11594 36.5416 5.22838 36.5416C2.34082 36.5416 0 34.2079 0 31.3291C0 28.4504 2.34082 26.1166 5.22838 26.1166Z" fill="url(#paint30_linear_21_5)"/>
</mask>
<g mask="url(#mask15_21_5)">
<path d="M5.22838 26.1166C8.11594 26.1166 10.4568 28.4504 10.4568 31.3291C10.4568 34.2079 8.11594 36.5416 5.22838 36.5416C2.34082 36.5416 0 34.2079 0 31.3291C0 28.4504 2.34082 26.1166 5.22838 26.1166Z" fill="url(#paint31_linear_21_5)"/>
</g>
<mask id="mask16_21_5" style="mask-type:alpha" maskUnits="userSpaceOnUse" x="30" y="26" width="11" height="11">
<path d="M35.5095 26.1166C38.397 26.1166 40.7378 28.4504 40.7378 31.3291C40.7378 34.2079 38.397 36.5416 35.5095 36.5416C32.6219 36.5416 30.2811 34.2079 30.2811 31.3291C30.2811 28.4504 32.6219 26.1166 35.5095 26.1166Z" fill="url(#paint32_linear_21_5)"/>
</mask>
<g mask="url(#mask16_21_5)">
<path d="M35.5095 26.1166C38.397 26.1166 40.7378 28.4504 40.7378 31.3291C40.7378 34.2079 38.397 36.5416 35.5095 36.5416C32.6219 36.5416 30.2811 34.2079 30.2811 31.3291C30.2811 28.4504 32.6219 26.1166 35.5095 26.1166Z" fill="url(#paint33_linear_21_5)"/>
</g>
<mask id="mask17_21_5" style="mask-type:alpha" maskUnits="userSpaceOnUse" x="60" y="26" width="12" height="11">
<path d="M65.7905 26.1166C68.6781 26.1166 71.0189 28.4504 71.0189 31.3291C71.0189 34.2079 68.6781 36.5416 65.7905 36.5416C62.903 36.5416 60.5621 34.2079 60.5621 31.3291C60.5621 28.4504 62.903 26.1166 65.7905 26.1166Z" fill="url(#paint34_linear_21_5)"/>
</mask>
<g mask="url(#mask17_21_5)">
<path d="M65.7905 26.1166C68.6781 26.1166 71.0189 28.4504 71.0189 31.3291C71.0189 34.2079 68.6781 36.5416 65.7905 36.5416C62.903 36.5416 60.5621 34.2079 60.5621 31.3291C60.5621 28.4504 62.903 26.1166 65.7905 26.1166Z" fill="url(#paint35_linear_21_5)"/>
</g>
<mask id="mask18_21_5" style="mask-type:alpha" maskUnits="userSpaceOnUse" x="90" y="26" width="12" height="11">
<path d="M96.0716 26.1166C98.9592 26.1166 101.3 28.4504 101.3 31.3291C101.3 34.2079 98.9592 36.5416 96.0716 36.5416C93.184 36.5416 90.8432 34.2079 90.8432 31.3291C90.8432 28.4504 93.184 26.1166 96.0716 26.1166Z" fill="url(#paint36_linear_21_5)"/>
</mask>
<g mask="url(#mask18_21_5)">
<path d="M96.0716 26.1166C98.9592 26.1166 101.3 28.4504 101.3 31.3291C101.3 34.2079 98.9592 36.5416 96.0716 36.5416C93.184 36.5416 90.8432 34.2079 90.8432 31.3291C90.8432 28.4504 93.184 26.1166 96.0716 26.1166Z" fill="url(#paint37_linear_21_5)"/>
</g>
<mask id="mask19_21_5" style="mask-type:alpha" maskUnits="userSpaceOnUse" x="121" y="26" width="11" height="11">
<path d="M126.353 26.1166C129.24 26.1166 131.581 28.4504 131.581 31.3291C131.581 34.2079 129.24 36.5416 126.353 36.5416C123.465 36.5416 121.124 34.2079 121.124 31.3291C121.124 28.4504 123.465 26.1166 126.353 26.1166Z" fill="url(#paint38_linear_21_5)"/>
</mask>
<g mask="url(#mask19_21_5)">
<path d="M126.353 26.1166C129.24 26.1166 131.581 28.4504 131.581 31.3291C131.581 34.2079 129.24 36.5416 126.353 36.5416C123.465 36.5416 121.124 34.2079 121.124 31.3291C121.124 28.4504 123.465 26.1166 126.353 26.1166Z" fill="url(#paint39_linear_21_5)"/>
</g>
<mask id="mask20_21_5" style="mask-type:alpha" maskUnits="userSpaceOnUse" x="0" y="0" width="11" height="11">
<path d="M5.22838 -9.53674e-07C8.11594 -9.53674e-07 10.4568 2.33368 10.4568 5.21244C10.4568 8.09121 8.11594 10.425 5.22838 10.425C2.34082 10.425 0 8.09121 0 5.21244C0 2.33368 2.34082 -9.53674e-07 5.22838 -9.53674e-07Z" fill="url(#paint40_linear_21_5)"/>
</mask>
<g mask="url(#mask20_21_5)">
<path d="M5.22838 -9.53674e-07C8.11594 -9.53674e-07 10.4568 2.33368 10.4568 5.21244C10.4568 8.09121 8.11594 10.425 5.22838 10.425C2.34082 10.425 0 8.09121 0 5.21244C0 2.33368 2.34082 -9.53674e-07 5.22838 -9.53674e-07Z" fill="url(#paint41_linear_21_5)"/>
</g>
<mask id="mask21_21_5" style="mask-type:alpha" maskUnits="userSpaceOnUse" x="30" y="0" width="11" height="11">
<path d="M35.5095 -9.53674e-07C38.397 -9.53674e-07 40.7378 2.33368 40.7378 5.21244C40.7378 8.09121 38.397 10.425 35.5095 10.425C32.6219 10.425 30.2811 8.09121 30.2811 5.21244C30.2811 2.33368 32.6219 -9.53674e-07 35.5095 -9.53674e-07Z" fill="url(#paint42_linear_21_5)"/>
</mask>
<g mask="url(#mask21_21_5)">
<path d="M35.5095 -9.53674e-07C38.397 -9.53674e-07 40.7378 2.33368 40.7378 5.21244C40.7378 8.09121 38.397 10.425 35.5095 10.425C32.6219 10.425 30.2811 8.09121 30.2811 5.21244C30.2811 2.33368 32.6219 -9.53674e-07 35.5095 -9.53674e-07Z" fill="url(#paint43_linear_21_5)"/>
</g>
<mask id="mask22_21_5" style="mask-type:alpha" maskUnits="userSpaceOnUse" x="60" y="0" width="12" height="11">
<path d="M65.7905 -9.53674e-07C68.6781 -9.53674e-07 71.0189 2.33368 71.0189 5.21244C71.0189 8.09121 68.6781 10.425 65.7905 10.425C62.903 10.425 60.5621 8.09121 60.5621 5.21244C60.5621 2.33368 62.903 -9.53674e-07 65.7905 -9.53674e-07Z" fill="url(#paint44_linear_21_5)"/>
</mask>
<g mask="url(#mask22_21_5)">
<path d="M65.7905 -9.53674e-07C68.6781 -9.53674e-07 71.0189 2.33368 71.0189 5.21244C71.0189 8.09121 68.6781 10.425 65.7905 10.425C62.903 10.425 60.5621 8.09121 60.5621 5.21244C60.5621 2.33368 62.903 -9.53674e-07 65.7905 -9.53674e-07Z" fill="url(#paint45_linear_21_5)"/>
</g>
<mask id="mask23_21_5" style="mask-type:alpha" maskUnits="userSpaceOnUse" x="90" y="0" width="12" height="11">
<path d="M96.0716 -9.53674e-07C98.9592 -9.53674e-07 101.3 2.33368 101.3 5.21244C101.3 8.09121 98.9592 10.425 96.0716 10.425C93.184 10.425 90.8432 8.09121 90.8432 5.21244C90.8432 2.33368 93.184 -9.53674e-07 96.0716 -9.53674e-07Z" fill="url(#paint46_linear_21_5)"/>
</mask>
<g mask="url(#mask23_21_5)">
<path d="M96.0716 -9.53674e-07C98.9592 -9.53674e-07 101.3 2.33368 101.3 5.21244C101.3 8.09121 98.9592 10.425 96.0716 10.425C93.184 10.425 90.8432 8.09121 90.8432 5.21244C90.8432 2.33368 93.184 -9.53674e-07 96.0716 -9.53674e-07Z" fill="url(#paint47_linear_21_5)"/>
</g>
<mask id="mask24_21_5" style="mask-type:alpha" maskUnits="userSpaceOnUse" x="121" y="0" width="11" height="11">
<path d="M126.353 -9.53674e-07C129.24 -9.53674e-07 131.581 2.33368 131.581 5.21244C131.581 8.09121 129.24 10.425 126.353 10.425C123.465 10.425 121.124 8.09121 121.124 5.21244C121.124 2.33368 123.465 -9.53674e-07 126.353 -9.53674e-07Z" fill="url(#paint48_linear_21_5)"/>
</mask>
<g mask="url(#mask24_21_5)">
<path d="M126.353 -9.53674e-07C129.24 -9.53674e-07 131.581 2.33368 131.581 5.21244C131.581 8.09121 129.24 10.425 126.353 10.425C123.465 10.425 121.124 8.09121 121.124 5.21244C121.124 2.33368 123.465 -9.53674e-07 126.353 -9.53674e-07Z" fill="url(#paint49_linear_21_5)"/>
</g>
</g>
<defs>
<linearGradient id="paint0_linear_21_5" x1="54.996" y1="-16.1338" x2="-16.4057" y2="165.67" gradientUnits="userSpaceOnUse">
<stop/>
<stop offset="1" stop-color="white"/>
</linearGradient>
<linearGradient id="paint1_linear_21_5" x1="54.996" y1="-16.1338" x2="-16.4057" y2="165.67" gradientUnits="userSpaceOnUse">
<stop stop-color="#97C3F9"/>
<stop offset="1" stop-color="#93C1F9"/>
</linearGradient>
<linearGradient id="paint2_linear_21_5" x1="81.2005" y1="-5.84259" x2="9.79889" y2="175.961" gradientUnits="userSpaceOnUse">
<stop/>
<stop offset="1" stop-color="white"/>
</linearGradient>
<linearGradient id="paint3_linear_21_5" x1="81.2005" y1="-5.84259" x2="9.79889" y2="175.961" gradientUnits="userSpaceOnUse">
<stop stop-color="#97C3F9"/>
<stop offset="1" stop-color="#93C1F9"/>
</linearGradient>
<linearGradient id="paint4_linear_21_5" x1="107.405" y1="4.44881" x2="36.0033" y2="186.253" gradientUnits="userSpaceOnUse">
<stop/>
<stop offset="1" stop-color="white"/>
</linearGradient>
<linearGradient id="paint5_linear_21_5" x1="107.405" y1="4.44881" x2="36.0033" y2="186.253" gradientUnits="userSpaceOnUse">
<stop stop-color="#97C3F9"/>
<stop offset="1" stop-color="#93C1F9"/>
</linearGradient>
<linearGradient id="paint6_linear_21_5" x1="133.609" y1="14.7406" x2="62.2075" y2="196.544" gradientUnits="userSpaceOnUse">
<stop/>
<stop offset="1" stop-color="white"/>
</linearGradient>
<linearGradient id="paint7_linear_21_5" x1="133.609" y1="14.7406" x2="62.2075" y2="196.544" gradientUnits="userSpaceOnUse">
<stop stop-color="#97C3F9"/>
<stop offset="1" stop-color="#93C1F9"/>
</linearGradient>
<linearGradient id="paint8_linear_21_5" x1="159.813" y1="25.0321" x2="88.4119" y2="206.836" gradientUnits="userSpaceOnUse">
<stop/>
<stop offset="1" stop-color="white"/>
</linearGradient>
<linearGradient id="paint9_linear_21_5" x1="159.813" y1="25.0321" x2="88.4119" y2="206.836" gradientUnits="userSpaceOnUse">
<stop stop-color="#97C3F9"/>
<stop offset="1" stop-color="#93C1F9"/>
</linearGradient>
<linearGradient id="paint10_linear_21_5" x1="46.0538" y1="-19.6453" x2="-25.3466" y2="162.157" gradientUnits="userSpaceOnUse">
<stop/>
<stop offset="1" stop-color="white"/>
</linearGradient>
<linearGradient id="paint11_linear_21_5" x1="46.0538" y1="-19.6453" x2="-25.3466" y2="162.157" gradientUnits="userSpaceOnUse">
<stop stop-color="#97C3F9"/>
<stop offset="1" stop-color="#93C1F9"/>
</linearGradient>
<linearGradient id="paint12_linear_21_5" x1="72.2581" y1="-9.3536" x2="0.857718" y2="172.449" gradientUnits="userSpaceOnUse">
<stop/>
<stop offset="1" stop-color="white"/>
</linearGradient>
<linearGradient id="paint13_linear_21_5" x1="72.2581" y1="-9.3536" x2="0.857718" y2="172.449" gradientUnits="userSpaceOnUse">
<stop stop-color="#97C3F9"/>
<stop offset="1" stop-color="#93C1F9"/>
</linearGradient>
<linearGradient id="paint14_linear_21_5" x1="98.4624" y1="0.937955" x2="27.0621" y2="182.74" gradientUnits="userSpaceOnUse">
<stop/>
<stop offset="1" stop-color="white"/>
</linearGradient>
<linearGradient id="paint15_linear_21_5" x1="98.4624" y1="0.937955" x2="27.0621" y2="182.74" gradientUnits="userSpaceOnUse">
<stop stop-color="#97C3F9"/>
<stop offset="1" stop-color="#93C1F9"/>
</linearGradient>
<linearGradient id="paint16_linear_21_5" x1="124.667" y1="11.2292" x2="53.2663" y2="193.032" gradientUnits="userSpaceOnUse">
<stop/>
<stop offset="1" stop-color="white"/>
</linearGradient>
<linearGradient id="paint17_linear_21_5" x1="124.667" y1="11.2292" x2="53.2663" y2="193.032" gradientUnits="userSpaceOnUse">
<stop stop-color="#97C3F9"/>
<stop offset="1" stop-color="#93C1F9"/>
</linearGradient>
<linearGradient id="paint18_linear_21_5" x1="150.871" y1="21.5206" x2="79.4707" y2="203.323" gradientUnits="userSpaceOnUse">
<stop/>
<stop offset="1" stop-color="white"/>
</linearGradient>
<linearGradient id="paint19_linear_21_5" x1="150.871" y1="21.5206" x2="79.4707" y2="203.323" gradientUnits="userSpaceOnUse">
<stop stop-color="#97C3F9"/>
<stop offset="1" stop-color="#93C1F9"/>
</linearGradient>
<linearGradient id="paint20_linear_21_5" x1="37.1113" y1="-23.1581" x2="-34.2903" y2="158.646" gradientUnits="userSpaceOnUse">
<stop/>
<stop offset="1" stop-color="white"/>
</linearGradient>
<linearGradient id="paint21_linear_21_5" x1="37.1113" y1="-23.1581" x2="-34.2903" y2="158.646" gradientUnits="userSpaceOnUse">
<stop stop-color="#97C3F9"/>
<stop offset="1" stop-color="#93C1F9"/>
</linearGradient>
<linearGradient id="paint22_linear_21_5" x1="63.3157" y1="-12.8665" x2="-8.0859" y2="168.937" gradientUnits="userSpaceOnUse">
<stop/>
<stop offset="1" stop-color="white"/>
</linearGradient>
<linearGradient id="paint23_linear_21_5" x1="63.3157" y1="-12.8665" x2="-8.0859" y2="168.937" gradientUnits="userSpaceOnUse">
<stop stop-color="#97C3F9"/>
<stop offset="1" stop-color="#93C1F9"/>
</linearGradient>
<linearGradient id="paint24_linear_21_5" x1="89.5201" y1="-2.57496" x2="18.1185" y2="179.229" gradientUnits="userSpaceOnUse">
<stop/>
<stop offset="1" stop-color="white"/>
</linearGradient>
<linearGradient id="paint25_linear_21_5" x1="89.5201" y1="-2.57496" x2="18.1185" y2="179.229" gradientUnits="userSpaceOnUse">
<stop stop-color="#97C3F9"/>
<stop offset="1" stop-color="#93C1F9"/>
</linearGradient>
<linearGradient id="paint26_linear_21_5" x1="115.724" y1="7.71664" x2="44.3227" y2="189.52" gradientUnits="userSpaceOnUse">
<stop/>
<stop offset="1" stop-color="white"/>
</linearGradient>
<linearGradient id="paint27_linear_21_5" x1="115.724" y1="7.71664" x2="44.3227" y2="189.52" gradientUnits="userSpaceOnUse">
<stop stop-color="#97C3F9"/>
<stop offset="1" stop-color="#93C1F9"/>
</linearGradient>
<linearGradient id="paint28_linear_21_5" x1="141.929" y1="18.0081" x2="70.5271" y2="199.812" gradientUnits="userSpaceOnUse">
<stop/>
<stop offset="1" stop-color="white"/>
</linearGradient>
<linearGradient id="paint29_linear_21_5" x1="141.929" y1="18.0081" x2="70.5271" y2="199.812" gradientUnits="userSpaceOnUse">
<stop stop-color="#97C3F9"/>
<stop offset="1" stop-color="#93C1F9"/>
</linearGradient>
<linearGradient id="paint30_linear_21_5" x1="28.169" y1="-26.6699" x2="-43.2327" y2="155.134" gradientUnits="userSpaceOnUse">
<stop/>
<stop offset="1" stop-color="white"/>
</linearGradient>
<linearGradient id="paint31_linear_21_5" x1="28.169" y1="-26.6699" x2="-43.2327" y2="155.134" gradientUnits="userSpaceOnUse">
<stop stop-color="#97C3F9"/>
<stop offset="1" stop-color="#93C1F9"/>
</linearGradient>
<linearGradient id="paint32_linear_21_5" x1="54.3734" y1="-16.3785" x2="-17.0283" y2="165.425" gradientUnits="userSpaceOnUse">
<stop/>
<stop offset="1" stop-color="white"/>
</linearGradient>
<linearGradient id="paint33_linear_21_5" x1="54.3734" y1="-16.3785" x2="-17.0283" y2="165.425" gradientUnits="userSpaceOnUse">
<stop stop-color="#97C3F9"/>
<stop offset="1" stop-color="#93C1F9"/>
</linearGradient>
<linearGradient id="paint34_linear_21_5" x1="80.5777" y1="-6.08683" x2="9.17609" y2="175.717" gradientUnits="userSpaceOnUse">
<stop/>
<stop offset="1" stop-color="white"/>
</linearGradient>
<linearGradient id="paint35_linear_21_5" x1="80.5777" y1="-6.08683" x2="9.17609" y2="175.717" gradientUnits="userSpaceOnUse">
<stop stop-color="#97C3F9"/>
<stop offset="1" stop-color="#93C1F9"/>
</linearGradient>
<linearGradient id="paint36_linear_21_5" x1="106.782" y1="4.20455" x2="35.3804" y2="186.008" gradientUnits="userSpaceOnUse">
<stop/>
<stop offset="1" stop-color="white"/>
</linearGradient>
<linearGradient id="paint37_linear_21_5" x1="106.782" y1="4.20455" x2="35.3804" y2="186.008" gradientUnits="userSpaceOnUse">
<stop stop-color="#97C3F9"/>
<stop offset="1" stop-color="#93C1F9"/>
</linearGradient>
<linearGradient id="paint38_linear_21_5" x1="132.986" y1="14.4961" x2="61.5847" y2="196.3" gradientUnits="userSpaceOnUse">
<stop/>
<stop offset="1" stop-color="white"/>
</linearGradient>
<linearGradient id="paint39_linear_21_5" x1="132.986" y1="14.4961" x2="61.5847" y2="196.3" gradientUnits="userSpaceOnUse">
<stop stop-color="#97C3F9"/>
<stop offset="1" stop-color="#93C1F9"/>
</linearGradient>
<linearGradient id="paint40_linear_21_5" x1="19.2266" y1="-30.1818" x2="-52.1751" y2="151.622" gradientUnits="userSpaceOnUse">
<stop/>
<stop offset="1" stop-color="white"/>
</linearGradient>
<linearGradient id="paint41_linear_21_5" x1="19.2266" y1="-30.1818" x2="-52.1751" y2="151.622" gradientUnits="userSpaceOnUse">
<stop stop-color="#97C3F9"/>
<stop offset="1" stop-color="#93C1F9"/>
</linearGradient>
<linearGradient id="paint42_linear_21_5" x1="45.431" y1="-19.8904" x2="-25.9706" y2="161.913" gradientUnits="userSpaceOnUse">
<stop/>
<stop offset="1" stop-color="white"/>
</linearGradient>
<linearGradient id="paint43_linear_21_5" x1="45.431" y1="-19.8904" x2="-25.9706" y2="161.913" gradientUnits="userSpaceOnUse">
<stop stop-color="#97C3F9"/>
<stop offset="1" stop-color="#93C1F9"/>
</linearGradient>
<linearGradient id="paint44_linear_21_5" x1="71.6353" y1="-9.59894" x2="0.233749" y2="172.205" gradientUnits="userSpaceOnUse">
<stop/>
<stop offset="1" stop-color="white"/>
</linearGradient>
<linearGradient id="paint45_linear_21_5" x1="71.6353" y1="-9.59894" x2="0.233749" y2="172.205" gradientUnits="userSpaceOnUse">
<stop stop-color="#97C3F9"/>
<stop offset="1" stop-color="#93C1F9"/>
</linearGradient>
<linearGradient id="paint46_linear_21_5" x1="97.8397" y1="0.692607" x2="26.438" y2="182.496" gradientUnits="userSpaceOnUse">
<stop/>
<stop offset="1" stop-color="white"/>
</linearGradient>
<linearGradient id="paint47_linear_21_5" x1="97.8397" y1="0.692607" x2="26.438" y2="182.496" gradientUnits="userSpaceOnUse">
<stop stop-color="#97C3F9"/>
<stop offset="1" stop-color="#93C1F9"/>
</linearGradient>
<linearGradient id="paint48_linear_21_5" x1="124.044" y1="10.984" x2="52.6424" y2="192.788" gradientUnits="userSpaceOnUse">
<stop/>
<stop offset="1" stop-color="white"/>
</linearGradient>
<linearGradient id="paint49_linear_21_5" x1="124.044" y1="10.984" x2="52.6424" y2="192.788" gradientUnits="userSpaceOnUse">
<stop stop-color="#97C3F9"/>
<stop offset="1" stop-color="#93C1F9"/>
</linearGradient>
</defs>
</svg>
